<mxfile host="app.diagrams.net" agent="Mozilla/5.0 (Windows NT 10.0; Win64; x64) AppleWebKit/537.36 (KHTML, like Gecko) Chrome/130.0.0.0 Safari/537.36" version="24.8.4">
  <diagram name="第 1 页" id="TFw86LQmR-_3ckI362Ps">
    <mxGraphModel dx="712" dy="737" grid="1" gridSize="10" guides="1" tooltips="1" connect="1" arrows="1" fold="1" page="1" pageScale="1" pageWidth="827" pageHeight="1169" math="0" shadow="0">
      <root>
        <mxCell id="0" />
        <mxCell id="1" parent="0" />
        <mxCell id="VQQAnVN5WDwD28waIKjL-40" style="edgeStyle=orthogonalEdgeStyle;rounded=0;orthogonalLoop=1;jettySize=auto;html=1;entryX=0.333;entryY=0.2;entryDx=0;entryDy=0;entryPerimeter=0;" edge="1" parent="1" source="VQQAnVN5WDwD28waIKjL-4" target="VQQAnVN5WDwD28waIKjL-12">
          <mxGeometry relative="1" as="geometry" />
        </mxCell>
        <mxCell id="VQQAnVN5WDwD28waIKjL-1" value="基础设施标准" style="rounded=0;whiteSpace=wrap;html=1;" vertex="1" parent="1">
          <mxGeometry x="360" y="110" width="110" height="30" as="geometry" />
        </mxCell>
        <mxCell id="VQQAnVN5WDwD28waIKjL-4" value="系统硬件" style="rounded=0;whiteSpace=wrap;html=1;" vertex="1" parent="1">
          <mxGeometry x="140" y="210" width="110" height="30" as="geometry" />
        </mxCell>
        <mxCell id="VQQAnVN5WDwD28waIKjL-5" value="系统软件" style="rounded=0;whiteSpace=wrap;html=1;" vertex="1" parent="1">
          <mxGeometry x="360" y="210" width="110" height="30" as="geometry" />
        </mxCell>
        <mxCell id="VQQAnVN5WDwD28waIKjL-35" style="edgeStyle=orthogonalEdgeStyle;rounded=0;orthogonalLoop=1;jettySize=auto;html=1;" edge="1" parent="1" source="VQQAnVN5WDwD28waIKjL-6">
          <mxGeometry relative="1" as="geometry">
            <mxPoint x="570" y="310" as="targetPoint" />
            <Array as="points">
              <mxPoint x="655" y="270" />
              <mxPoint x="575" y="270" />
              <mxPoint x="575" y="310" />
            </Array>
          </mxGeometry>
        </mxCell>
        <mxCell id="VQQAnVN5WDwD28waIKjL-37" style="edgeStyle=orthogonalEdgeStyle;rounded=0;orthogonalLoop=1;jettySize=auto;html=1;exitX=0.5;exitY=1;exitDx=0;exitDy=0;" edge="1" parent="1" source="VQQAnVN5WDwD28waIKjL-6" target="VQQAnVN5WDwD28waIKjL-22">
          <mxGeometry relative="1" as="geometry" />
        </mxCell>
        <mxCell id="VQQAnVN5WDwD28waIKjL-38" style="edgeStyle=orthogonalEdgeStyle;rounded=0;orthogonalLoop=1;jettySize=auto;html=1;exitX=0.5;exitY=1;exitDx=0;exitDy=0;" edge="1" parent="1" source="VQQAnVN5WDwD28waIKjL-6" target="VQQAnVN5WDwD28waIKjL-23">
          <mxGeometry relative="1" as="geometry" />
        </mxCell>
        <mxCell id="VQQAnVN5WDwD28waIKjL-39" style="edgeStyle=orthogonalEdgeStyle;rounded=0;orthogonalLoop=1;jettySize=auto;html=1;exitX=0.5;exitY=1;exitDx=0;exitDy=0;" edge="1" parent="1" source="VQQAnVN5WDwD28waIKjL-6" target="VQQAnVN5WDwD28waIKjL-21">
          <mxGeometry relative="1" as="geometry" />
        </mxCell>
        <mxCell id="VQQAnVN5WDwD28waIKjL-6" value="配套设施" style="rounded=0;whiteSpace=wrap;html=1;" vertex="1" parent="1">
          <mxGeometry x="600" y="210" width="110" height="30" as="geometry" />
        </mxCell>
        <mxCell id="VQQAnVN5WDwD28waIKjL-11" value="" style="endArrow=none;html=1;rounded=0;entryX=1;entryY=0.5;entryDx=0;entryDy=0;exitX=0.582;exitY=0;exitDx=0;exitDy=0;exitPerimeter=0;" edge="1" parent="1" source="VQQAnVN5WDwD28waIKjL-6" target="VQQAnVN5WDwD28waIKjL-1">
          <mxGeometry width="50" height="50" relative="1" as="geometry">
            <mxPoint x="470" y="410" as="sourcePoint" />
            <mxPoint x="520" y="360" as="targetPoint" />
            <Array as="points">
              <mxPoint x="664" y="125" />
            </Array>
          </mxGeometry>
        </mxCell>
        <mxCell id="VQQAnVN5WDwD28waIKjL-12" value="传&lt;div&gt;感&lt;/div&gt;&lt;div&gt;器&lt;/div&gt;" style="rounded=0;whiteSpace=wrap;html=1;" vertex="1" parent="1">
          <mxGeometry x="120" y="300" width="30" height="150" as="geometry" />
        </mxCell>
        <mxCell id="VQQAnVN5WDwD28waIKjL-13" value="数&lt;div&gt;据&lt;/div&gt;&lt;div&gt;采&lt;/div&gt;&lt;div&gt;集&lt;/div&gt;&lt;div&gt;设&lt;/div&gt;&lt;div&gt;备&lt;/div&gt;" style="rounded=0;whiteSpace=wrap;html=1;" vertex="1" parent="1">
          <mxGeometry x="160" y="300" width="30" height="150" as="geometry" />
        </mxCell>
        <mxCell id="VQQAnVN5WDwD28waIKjL-14" value="数&lt;div&gt;据&lt;/div&gt;&lt;div&gt;传&lt;/div&gt;&lt;div&gt;输&lt;/div&gt;&lt;div&gt;设&lt;/div&gt;&lt;div&gt;备&lt;/div&gt;" style="rounded=0;whiteSpace=wrap;html=1;" vertex="1" parent="1">
          <mxGeometry x="200" y="300" width="30" height="150" as="geometry" />
        </mxCell>
        <mxCell id="VQQAnVN5WDwD28waIKjL-15" value="计&lt;div&gt;算&lt;/div&gt;&lt;div&gt;与&lt;/div&gt;&lt;div&gt;存&lt;/div&gt;&lt;div&gt;储&lt;/div&gt;&lt;div&gt;设&lt;/div&gt;&lt;div&gt;备&lt;/div&gt;" style="rounded=0;whiteSpace=wrap;html=1;" vertex="1" parent="1">
          <mxGeometry x="240" y="300" width="30" height="150" as="geometry" />
        </mxCell>
        <mxCell id="VQQAnVN5WDwD28waIKjL-16" value="数&lt;div&gt;&lt;span style=&quot;background-color: initial;&quot;&gt;据&lt;/span&gt;&lt;div&gt;采&lt;/div&gt;&lt;div&gt;集&lt;/div&gt;&lt;div&gt;与&lt;/div&gt;&lt;div&gt;传&lt;/div&gt;&lt;div&gt;输&lt;/div&gt;&lt;div&gt;模&lt;/div&gt;&lt;div&gt;块&lt;/div&gt;&lt;/div&gt;" style="rounded=0;whiteSpace=wrap;html=1;" vertex="1" parent="1">
          <mxGeometry x="360" y="300" width="30" height="150" as="geometry" />
        </mxCell>
        <mxCell id="VQQAnVN5WDwD28waIKjL-18" value="数&lt;div&gt;据&lt;/div&gt;&lt;div&gt;处&lt;/div&gt;&lt;div&gt;理&lt;/div&gt;&lt;div&gt;与&lt;/div&gt;&lt;div&gt;管&lt;/div&gt;&lt;div&gt;理&lt;/div&gt;&lt;div&gt;模&lt;/div&gt;&lt;div&gt;块&lt;/div&gt;" style="rounded=0;whiteSpace=wrap;html=1;" vertex="1" parent="1">
          <mxGeometry x="399" y="300" width="30" height="150" as="geometry" />
        </mxCell>
        <mxCell id="VQQAnVN5WDwD28waIKjL-19" value="用&lt;div&gt;户&lt;/div&gt;&lt;div&gt;界&lt;/div&gt;&lt;div&gt;面&lt;/div&gt;&lt;div&gt;模&lt;/div&gt;&lt;div&gt;块&lt;/div&gt;" style="rounded=0;whiteSpace=wrap;html=1;" vertex="1" parent="1">
          <mxGeometry x="440" y="300" width="30" height="150" as="geometry" />
        </mxCell>
        <mxCell id="VQQAnVN5WDwD28waIKjL-20" value="供&lt;div&gt;配&lt;/div&gt;&lt;div&gt;&lt;span style=&quot;background-color: initial;&quot;&gt;电&lt;/span&gt;&lt;/div&gt;&lt;div&gt;设&lt;/div&gt;&lt;div&gt;&lt;span style=&quot;background-color: initial;&quot;&gt;施&lt;/span&gt;&lt;/div&gt;" style="rounded=0;whiteSpace=wrap;html=1;" vertex="1" parent="1">
          <mxGeometry x="560" y="300" width="30" height="150" as="geometry" />
        </mxCell>
        <mxCell id="VQQAnVN5WDwD28waIKjL-21" value="综&lt;div&gt;合&lt;/div&gt;&lt;div&gt;&lt;div&gt;&lt;span style=&quot;background-color: initial;&quot;&gt;布&lt;/span&gt;&lt;/div&gt;&lt;div&gt;&lt;span style=&quot;background-color: initial;&quot;&gt;线&lt;/span&gt;&lt;/div&gt;&lt;div&gt;&lt;span style=&quot;background-color: initial;&quot;&gt;设&lt;/span&gt;&lt;/div&gt;&lt;div&gt;&lt;span style=&quot;background-color: initial;&quot;&gt;施&lt;/span&gt;&lt;/div&gt;&lt;/div&gt;" style="rounded=0;whiteSpace=wrap;html=1;" vertex="1" parent="1">
          <mxGeometry x="720" y="300" width="30" height="150" as="geometry" />
        </mxCell>
        <mxCell id="VQQAnVN5WDwD28waIKjL-22" value="系&lt;div&gt;统&lt;/div&gt;&lt;div&gt;防&lt;/div&gt;&lt;div&gt;护&lt;/div&gt;&lt;div&gt;设&lt;/div&gt;&lt;div&gt;施&lt;/div&gt;" style="rounded=0;whiteSpace=wrap;html=1;" vertex="1" parent="1">
          <mxGeometry x="640" y="300" width="30" height="150" as="geometry" />
        </mxCell>
        <mxCell id="VQQAnVN5WDwD28waIKjL-23" value="防&lt;div&gt;雷&lt;/div&gt;&lt;div&gt;接&lt;/div&gt;&lt;div&gt;地&lt;/div&gt;&lt;div&gt;设&lt;/div&gt;&lt;div&gt;施&lt;/div&gt;" style="rounded=0;whiteSpace=wrap;html=1;" vertex="1" parent="1">
          <mxGeometry x="680" y="300" width="30" height="150" as="geometry" />
        </mxCell>
        <mxCell id="VQQAnVN5WDwD28waIKjL-24" value="监&lt;div&gt;控&lt;/div&gt;&lt;div&gt;中&lt;/div&gt;&lt;div&gt;心&lt;/div&gt;&lt;div&gt;支&lt;/div&gt;&lt;div&gt;撑&lt;/div&gt;&lt;div&gt;环&lt;/div&gt;&lt;div&gt;境&lt;/div&gt;&lt;div&gt;设&lt;/div&gt;&lt;div&gt;施&lt;/div&gt;" style="rounded=0;whiteSpace=wrap;html=1;" vertex="1" parent="1">
          <mxGeometry x="600" y="300" width="30" height="150" as="geometry" />
        </mxCell>
        <mxCell id="VQQAnVN5WDwD28waIKjL-27" value="" style="endArrow=none;html=1;rounded=0;entryX=0;entryY=0.5;entryDx=0;entryDy=0;exitX=0.445;exitY=-0.133;exitDx=0;exitDy=0;exitPerimeter=0;" edge="1" parent="1" source="VQQAnVN5WDwD28waIKjL-4" target="VQQAnVN5WDwD28waIKjL-1">
          <mxGeometry width="50" height="50" relative="1" as="geometry">
            <mxPoint x="160" y="540" as="sourcePoint" />
            <mxPoint x="210" y="490" as="targetPoint" />
            <Array as="points">
              <mxPoint x="190" y="125" />
            </Array>
          </mxGeometry>
        </mxCell>
        <mxCell id="VQQAnVN5WDwD28waIKjL-33" value="" style="endArrow=none;html=1;rounded=0;entryX=0.5;entryY=1;entryDx=0;entryDy=0;" edge="1" parent="1" source="VQQAnVN5WDwD28waIKjL-5" target="VQQAnVN5WDwD28waIKjL-1">
          <mxGeometry width="50" height="50" relative="1" as="geometry">
            <mxPoint x="360" y="570" as="sourcePoint" />
            <mxPoint x="410" y="520" as="targetPoint" />
          </mxGeometry>
        </mxCell>
      </root>
    </mxGraphModel>
  </diagram>
</mxfile>
